<svg width="96" height="96" viewBox="0 0 96 96" fill="none" xmlns="http://www.w3.org/2000/svg">
<rect x="2" y="2" width="92" height="92" rx="18" stroke="#82C5F9" stroke-width="4"/>
<path d="M50.3312 25.7363V30.4497C60.5746 31.7097 67.8312 41.0197 66.5712 51.263C65.4979 59.7563 58.8246 66.4997 50.3312 67.503V72.1697C63.1646 70.8863 72.4979 59.4997 71.2146 46.6663C70.1646 35.583 61.3679 26.833 50.3312 25.7363ZM45.6646 25.8063C41.1146 26.2497 36.7746 27.9997 33.2279 30.9397L36.5646 34.393C39.1779 32.293 42.3279 30.9397 45.6646 30.473V25.8063ZM29.9379 34.2297C27.0204 37.7701 25.2251 42.1002 24.7812 46.6663H29.4479C29.8913 43.353 31.1979 40.203 33.2746 37.5663L29.9379 34.2297ZM24.8046 51.333C25.2712 55.9063 27.0679 60.223 29.9612 63.7697L33.2746 60.433C31.2141 57.7954 29.9005 54.6524 29.4712 51.333H24.8046ZM36.5646 63.863L33.2279 67.0597C36.7624 70.006 41.0895 71.8407 45.6646 72.333V67.6663C42.3452 67.2371 39.2022 65.9235 36.5646 63.863ZM59.2446 56.443L49.6546 46.853C50.6112 44.4263 50.0746 41.5797 48.0679 39.5963C45.9679 37.473 42.8179 37.053 40.2746 38.2197L44.8012 42.7463L41.6512 45.9197L37.0079 41.3697C35.7479 43.913 36.3312 47.063 38.3846 49.1863C40.3912 51.193 43.2379 51.7063 45.6646 50.773L55.2546 60.3397C55.6746 60.783 56.3046 60.783 56.7246 60.3397L59.1512 57.9363C59.6646 57.5163 59.6646 56.7697 59.2446 56.443Z" fill="#82C5F9"/>
</svg>
