<svg width="96" height="96" viewBox="0 0 96 96" fill="none" xmlns="http://www.w3.org/2000/svg">
<rect x="2" y="2" width="92" height="92" rx="18" stroke="#8CF1EB" stroke-width="4"/>
<path d="M56.9579 44.8003L54.6012 47.157L49.7712 42.4203L52.1279 40.0403C52.5946 39.5503 53.3879 39.527 53.9479 40.0403L56.9579 42.957C57.4479 43.447 57.4712 44.2403 56.9579 44.8003ZM38.6646 53.457L48.3946 43.6803L53.2246 48.5337L43.5179 58.3337H38.6646V53.457ZM50.3312 25.667V30.3337C60.5746 31.5937 67.8312 40.9037 66.5712 51.147C66.0562 55.2746 64.1796 59.1127 61.2382 62.054C58.2969 64.9953 54.4589 66.8719 50.3312 67.387V72.0537C63.1646 70.6537 72.3813 59.127 70.9813 46.317C69.7679 35.4437 61.2046 26.8337 50.3312 25.667ZM45.6646 25.667C41.0912 26.087 36.7746 27.8837 33.2279 30.8003L36.5646 34.3937C39.1779 32.2937 42.3279 30.9403 45.6646 30.4737V25.807M29.9379 34.2303C27.0112 37.7652 25.2145 42.0982 24.7812 46.667H29.4479C29.8913 43.3537 31.1979 40.2037 33.2746 37.567L29.9379 34.2303ZM24.8046 51.3337C25.2712 55.907 27.0679 60.2237 29.9612 63.7703L33.2746 60.4337C31.2141 57.7961 29.9005 54.6531 29.4712 51.3337H24.8046ZM36.4713 63.8637L33.2279 67.0603C36.7624 70.0066 41.0895 71.8414 45.6646 72.3337V67.667C42.3452 67.2378 39.2022 65.9242 36.5646 63.8637H36.4713Z" fill="#8CF1EB"/>
</svg>
