<svg width="18" height="22" viewBox="0 0 18 22" fill="none" xmlns="http://www.w3.org/2000/svg">
<path fill-rule="evenodd" clip-rule="evenodd" d="M4.50391 5H11.6319C12.5261 5.00132 13.3833 5.35749 14.0152 5.99028C14.647 6.62307 15.0019 7.48076 15.0019 8.375V17.75C15.7976 17.75 16.5606 17.4339 17.1232 16.8713C17.6858 16.3087 18.0019 15.5456 18.0019 14.75V5.108C18.0019 3.603 16.8769 2.297 15.3379 2.168C15.1137 2.14979 14.8894 2.13312 14.6649 2.118C14.4118 1.63029 14.0296 1.22147 13.56 0.936141C13.0903 0.650816 12.5514 0.499949 12.0019 0.5H10.5019C9.95242 0.499949 9.41347 0.650816 8.94386 0.936141C8.47426 1.22147 8.09204 1.63029 7.83891 2.118C7.61391 2.133 7.38891 2.15 7.16591 2.168C5.66391 2.295 4.55591 3.542 4.50391 5ZM10.5019 2C10.1041 2 9.72255 2.15804 9.44125 2.43934C9.15994 2.72064 9.00191 3.10218 9.00191 3.5H13.5019C13.5019 3.10218 13.3439 2.72064 13.0626 2.43934C12.7813 2.15804 12.3997 2 12.0019 2H10.5019Z" fill="#82C5F9"/>
<path fill-rule="evenodd" clip-rule="evenodd" d="M0 8.375C0 7.339 0.84 6.5 1.875 6.5H11.625C12.661 6.5 13.5 7.34 13.5 8.375V19.625C13.5 20.66 12.66 21.5 11.625 21.5H1.875C1.37772 21.5 0.900805 21.3025 0.549175 20.9508C0.197544 20.5992 0 20.1223 0 19.625V8.375ZM3 11C3 10.8011 3.07902 10.6103 3.21967 10.4697C3.36032 10.329 3.55109 10.25 3.75 10.25H3.758C3.95691 10.25 4.14768 10.329 4.28833 10.4697C4.42898 10.6103 4.508 10.8011 4.508 11V11.008C4.508 11.2069 4.42898 11.3977 4.28833 11.5383C4.14768 11.679 3.95691 11.758 3.758 11.758H3.75C3.55109 11.758 3.36032 11.679 3.21967 11.5383C3.07902 11.3977 3 11.2069 3 11.008V11ZM5.25 11C5.25 10.8011 5.32902 10.6103 5.46967 10.4697C5.61032 10.329 5.80109 10.25 6 10.25H9.75C9.94891 10.25 10.1397 10.329 10.2803 10.4697C10.421 10.6103 10.5 10.8011 10.5 11C10.5 11.1989 10.421 11.3897 10.2803 11.5303C10.1397 11.671 9.94891 11.75 9.75 11.75H6C5.80109 11.75 5.61032 11.671 5.46967 11.5303C5.32902 11.3897 5.25 11.1989 5.25 11ZM3 14C3 13.8011 3.07902 13.6103 3.21967 13.4697C3.36032 13.329 3.55109 13.25 3.75 13.25H3.758C3.95691 13.25 4.14768 13.329 4.28833 13.4697C4.42898 13.6103 4.508 13.8011 4.508 14V14.008C4.508 14.2069 4.42898 14.3977 4.28833 14.5383C4.14768 14.679 3.95691 14.758 3.758 14.758H3.75C3.55109 14.758 3.36032 14.679 3.21967 14.5383C3.07902 14.3977 3 14.2069 3 14.008V14ZM5.25 14C5.25 13.8011 5.32902 13.6103 5.46967 13.4697C5.61032 13.329 5.80109 13.25 6 13.25H9.75C9.94891 13.25 10.1397 13.329 10.2803 13.4697C10.421 13.6103 10.5 13.8011 10.5 14C10.5 14.1989 10.421 14.3897 10.2803 14.5303C10.1397 14.671 9.94891 14.75 9.75 14.75H6C5.80109 14.75 5.61032 14.671 5.46967 14.5303C5.32902 14.3897 5.25 14.1989 5.25 14ZM3 17C3 16.8011 3.07902 16.6103 3.21967 16.4697C3.36032 16.329 3.55109 16.25 3.75 16.25H3.758C3.95691 16.25 4.14768 16.329 4.28833 16.4697C4.42898 16.6103 4.508 16.8011 4.508 17V17.008C4.508 17.2069 4.42898 17.3977 4.28833 17.5383C4.14768 17.679 3.95691 17.758 3.758 17.758H3.75C3.55109 17.758 3.36032 17.679 3.21967 17.5383C3.07902 17.3977 3 17.2069 3 17.008V17ZM5.25 17C5.25 16.8011 5.32902 16.6103 5.46967 16.4697C5.61032 16.329 5.80109 16.25 6 16.25H9.75C9.94891 16.25 10.1397 16.329 10.2803 16.4697C10.421 16.6103 10.5 16.8011 10.5 17C10.5 17.1989 10.421 17.3897 10.2803 17.5303C10.1397 17.671 9.94891 17.75 9.75 17.75H6C5.80109 17.75 5.61032 17.671 5.46967 17.5303C5.32902 17.3897 5.25 17.1989 5.25 17Z" fill="#82C5F9"/>
</svg>
