<svg width="24" height="24" viewBox="0 0 24 24" fill="none" xmlns="http://www.w3.org/2000/svg">
<path d="M21.5955 16.6827L17.2505 12.3377C16.3933 11.4805 15.1132 11.3135 14.0816 11.8219L10.1262 7.86642V5.56215L5.37662 2L3.00186 4.37477L6.56401 9.1243H8.86827L12.8237 13.0798C12.3191 14.1113 12.4824 15.3915 13.3395 16.2486L17.6846 20.5937C18.2263 21.1354 19.102 21.1354 19.6401 20.5937L21.5955 18.6382C22.1336 18.0965 22.1336 17.2208 21.5955 16.6827ZM15.3098 10.3488C16.3599 10.3488 17.3469 10.757 18.0891 11.4991L18.8089 12.2189C19.3952 11.9629 19.9518 11.6067 20.4341 11.1243C21.8108 9.74768 22.2783 7.81076 21.8404 6.05195C21.7588 5.718 21.3395 5.60297 21.0946 5.84787L18.334 8.60853L15.8145 8.18924L15.3952 5.66976L18.1558 2.90909C18.4007 2.66419 18.282 2.2449 17.9443 2.15955C16.1855 1.72542 14.2486 2.19295 12.8757 3.56586C11.8182 4.62338 11.321 6.01855 11.3469 7.41002L14.3933 10.4564C14.6939 10.3859 15.0056 10.3488 15.3098 10.3488ZM11.4545 13.3915L9.35065 11.2876L3.69573 16.9462C2.76809 17.8738 2.76809 19.3766 3.69573 20.3043C4.62338 21.2319 6.12616 21.2319 7.0538 20.3043L11.6401 15.718C11.3581 14.9796 11.2727 14.1744 11.4545 13.3915ZM5.37662 19.5139C4.88683 19.5139 4.48609 19.1132 4.48609 18.6234C4.48609 18.1299 4.88312 17.7328 5.37662 17.7328C5.87013 17.7328 6.26716 18.1299 6.26716 18.6234C6.26716 19.1132 5.87013 19.5139 5.37662 19.5139Z" fill="#8CF1EB"/>
</svg>
