<svg width="22" height="22" viewBox="0 0 22 22" fill="none" xmlns="http://www.w3.org/2000/svg">
<path d="M8.94945 10.2076L1.60901 17.4844C1.41594 17.6756 1.26278 17.9026 1.15829 18.1525C1.05379 18.4024 1 18.6703 1 18.9408C1 19.2113 1.05379 19.4792 1.15829 19.7291C1.26278 19.979 1.41594 20.206 1.60901 20.3972C1.99841 20.7831 2.52648 20.9999 3.0771 20.9999C3.62771 20.9999 4.15579 20.7831 4.54519 20.3972L11.8856 13.1183M16.3657 13.494L20.392 17.4854C20.7813 17.8714 21 18.3949 21 18.9408C21 19.4866 20.7813 20.0101 20.392 20.3961C20.0026 20.7821 19.4746 20.9988 18.9239 20.9988C18.3733 20.9988 17.8453 20.7821 17.4559 20.3961L11.0093 14.0065M5.50557 5.367L3.30136 6.09365L1.10027 2.45524L2.56836 0.999878L6.23962 3.18292L5.50557 5.367ZM5.50557 5.367L8.44382 8.27978" stroke="#E6E6E6" stroke-width="1.5" stroke-linecap="round" stroke-linejoin="round"/>
<path d="M8.95041 10.2076C8.07413 7.99159 8.24544 5.08395 10.052 3.29305C11.8586 1.50215 15.1913 1.11001 17.0259 2.20204L13.8697 5.33097L13.5758 8.53298L16.8058 8.24273L19.9621 5.11277C21.0647 6.93249 20.6681 10.2364 18.8616 12.0263C17.055 13.8172 14.123 13.987 11.8876 13.1183" stroke="#E6E6E6" stroke-width="1.5" stroke-linecap="round" stroke-linejoin="round"/>
</svg>
