<svg width="19" height="22" viewBox="0 0 19 22" fill="none" xmlns="http://www.w3.org/2000/svg">
<path fill-rule="evenodd" clip-rule="evenodd" d="M1.40027 6.83004C1.55372 4.96848 2.40164 3.23271 3.77567 1.9674C5.1497 0.7021 6.94933 -0.000187137 8.81721 3.7405e-08H9.19375C11.0616 -0.000187137 12.8613 0.7021 14.2353 1.9674C15.6093 3.23271 16.4572 4.96848 16.6107 6.83004C16.7812 8.89907 16.1421 10.9535 14.8279 12.5607L10.6499 17.6695C10.4507 17.9132 10.1998 18.1095 9.9154 18.2443C9.631 18.3791 9.3202 18.449 9.00548 18.449C8.69075 18.449 8.37995 18.3791 8.09556 18.2443C7.81116 18.1095 7.56027 17.9132 7.36101 17.6695L3.18303 12.5607C1.86916 10.9538 1.23005 8.89984 1.40027 6.8312V6.83004ZM8.81721 1.74325C7.38694 1.74307 6.0089 2.28079 4.95675 3.24963C3.90459 4.21847 3.25527 5.54756 3.13771 6.97299C3.00396 8.59214 3.50394 10.2 4.5323 11.4578L8.71029 16.5667C8.86253 16.7526 9.14842 16.7526 9.30067 16.5667L13.4786 11.4578C14.507 10.2 15.007 8.59214 14.8732 6.97299C14.7557 5.54756 14.1064 4.21847 13.0542 3.24963C12.002 2.28079 10.624 1.74307 9.19375 1.74325H8.81721ZM4.64752 7.84461C4.64752 6.68877 5.10668 5.58026 5.92399 4.76296C6.74129 3.94565 7.8498 3.48649 9.00564 3.48649C10.1615 3.48649 11.27 3.94565 12.0873 4.76296C12.9046 5.58026 13.3638 6.68877 13.3638 7.84461C13.3638 9.00045 12.9046 10.109 12.0873 10.9263C11.27 11.7436 10.1615 12.2027 9.00564 12.2027C7.8498 12.2027 6.74129 11.7436 5.92399 10.9263C5.10668 10.109 4.64752 9.00045 4.64752 7.84461ZM9.00564 5.22974C8.31213 5.22974 7.64703 5.50524 7.15665 5.99562C6.66627 6.486 6.39077 7.1511 6.39077 7.84461C6.39077 8.53812 6.66627 9.20322 7.15665 9.6936C7.64703 10.184 8.31213 10.4595 9.00564 10.4595C9.69915 10.4595 10.3642 10.184 10.8546 9.6936C11.345 9.20322 11.6205 8.53812 11.6205 7.84461C11.6205 7.1511 11.345 6.486 10.8546 5.99562C10.3642 5.50524 9.69915 5.22974 9.00564 5.22974ZM4.08057 16.0352C4.06784 16.1526 4.03138 16.2662 3.97341 16.369L2.28014 19.7568H15.731L14.0378 16.369C13.9798 16.2662 13.9433 16.1526 13.9306 16.0352C13.9179 15.9178 13.9291 15.799 13.9637 15.6861C13.9982 15.5732 14.0554 15.4684 14.1317 15.3783C14.2079 15.2881 14.3017 15.2144 14.4073 15.1616C14.513 15.1088 14.6282 15.078 14.7461 15.071C14.864 15.0641 14.9821 15.0812 15.0931 15.1213C15.2042 15.1615 15.306 15.2237 15.3923 15.3043C15.4785 15.385 15.5475 15.4823 15.5951 15.5904L17.9194 20.2391C17.9857 20.3719 18.017 20.5194 18.0103 20.6677C18.0036 20.8159 17.9592 20.96 17.8812 21.0863C17.8032 21.2126 17.6942 21.3169 17.5647 21.3893C17.4351 21.4617 17.2892 21.4998 17.1407 21.5H0.870433C0.722005 21.4998 0.576087 21.4617 0.44651 21.3893C0.316933 21.3169 0.207989 21.2126 0.130003 21.0863C0.0520179 20.96 0.00757441 20.8159 0.000885614 20.6677C-0.00580318 20.5194 0.0254842 20.3719 0.0917822 20.2391L2.41611 15.5904C2.46364 15.4823 2.53263 15.385 2.61892 15.3043C2.7052 15.2237 2.80697 15.1615 2.91804 15.1213C3.02911 15.0812 3.14718 15.0641 3.26507 15.071C3.38296 15.078 3.49821 15.1088 3.60384 15.1616C3.70946 15.2144 3.80325 15.2881 3.87952 15.3783C3.95578 15.4684 4.01293 15.5732 4.04749 15.6861C4.08205 15.799 4.09331 15.9178 4.08057 16.0352Z" fill="#E6E6E6"/>
</svg>
