<svg width="24" height="24" viewBox="0 0 24 24" fill="none" xmlns="http://www.w3.org/2000/svg">
<g clip-path="url(#clip0_170_9076)">
<path d="M21.3747 24C21.0298 24.001 20.6882 23.9336 20.3696 23.8016C20.0509 23.6697 19.7616 23.4758 19.5185 23.2313L16.4225 20.1353C15.5439 20.3293 14.6288 20.2762 13.7786 19.9819C12.9283 19.6876 12.1762 19.1637 11.6055 18.4681C11.0348 17.7726 10.6679 16.9325 10.5454 16.0412C10.4229 15.1499 10.5496 14.242 10.9115 13.4183L11.3525 12.4133L14.4695 15.5303C14.6122 15.6666 14.802 15.7426 14.9993 15.7426C15.1967 15.7426 15.3865 15.6666 15.5292 15.5303C15.599 15.4607 15.6543 15.3781 15.6921 15.2872C15.7299 15.1962 15.7494 15.0987 15.7495 15.0002C15.7496 14.9017 15.7302 14.8041 15.6925 14.7131C15.6549 14.6221 15.5996 14.5394 15.53 14.4698L12.413 11.352L13.418 10.911C14.2418 10.5494 15.1496 10.4228 16.0409 10.5455C16.9322 10.6681 17.7722 11.0351 18.4677 11.6059C19.1632 12.1766 19.6871 12.9287 19.9814 13.7789C20.2757 14.6291 20.3288 15.5442 20.135 16.4228L23.231 19.5188C23.5981 19.8859 23.8482 20.3536 23.9495 20.8629C24.0508 21.3721 23.9988 21.8999 23.8001 22.3796C23.6014 22.8593 23.2649 23.2692 22.8332 23.5577C22.4015 23.8461 21.8939 24.0001 21.3747 24ZM16.8522 18.4433L20.5797 22.1708C20.7939 22.3752 21.0786 22.4893 21.3747 22.4893C21.6708 22.4893 21.9555 22.3752 22.1697 22.1708C22.2743 22.0664 22.3573 21.9424 22.4139 21.806C22.4706 21.6695 22.4997 21.5232 22.4997 21.3754C22.4997 21.2276 22.4706 21.0813 22.4139 20.9448C22.3573 20.8083 22.2743 20.6844 22.1697 20.58L18.443 16.8525L18.584 16.4153C18.7487 15.9089 18.7912 15.3708 18.7079 14.8448C18.6247 14.3189 18.4181 13.8202 18.105 13.3894C17.7919 12.9587 17.3813 12.6083 16.9068 12.3668C16.4322 12.1253 15.9072 11.9996 15.3747 12C15.3117 12 15.2492 12.0018 15.1872 12.0053L16.5912 13.4093C17.013 13.8312 17.25 14.4034 17.25 15C17.25 15.5966 17.013 16.1688 16.5912 16.5908C16.1626 17 15.5927 17.2284 15.0001 17.2284C14.4074 17.2284 13.8376 17 13.409 16.5908L12.005 15.1868C12.0015 15.2493 11.9997 15.312 11.9997 15.375C11.9993 15.9076 12.125 16.4327 12.3665 16.9073C12.6081 17.382 12.9586 17.7927 13.3894 18.1058C13.8202 18.419 14.319 18.6256 14.845 18.7089C15.371 18.7922 15.9093 18.7498 16.4157 18.585L16.8522 18.4433Z" fill="#E6E6E6"/>
<path d="M18.75 3.75H16.5V3C16.4988 2.60254 16.3404 2.2217 16.0593 1.94065C15.7783 1.6596 15.3975 1.50119 15 1.5H9C8.60254 1.50119 8.2217 1.6596 7.94065 1.94065C7.6596 2.2217 7.50119 2.60254 7.5 3V3.75H5.25C4.85254 3.75119 4.4717 3.9096 4.19065 4.19065C3.9096 4.4717 3.75119 4.85254 3.75 5.25V21C3.75119 21.3975 3.9096 21.7783 4.19065 22.0593C4.4717 22.3404 4.85254 22.4988 5.25 22.5H10.5V21H5.25V5.25H7.5V7.5H16.5V5.25H18.75V9H20.25V5.25C20.2488 4.85254 20.0904 4.4717 19.8093 4.19065C19.5283 3.9096 19.1475 3.75119 18.75 3.75ZM15 6H9V3H15V6Z" fill="#E6E6E6"/>
</g>
<defs>
<clipPath id="clip0_170_9076">
<rect width="24" height="24" fill="white"/>
</clipPath>
</defs>
</svg>
