<svg width="20" height="22" viewBox="0 0 20 22" fill="none" xmlns="http://www.w3.org/2000/svg">
<path fill-rule="evenodd" clip-rule="evenodd" d="M5 6C4.20435 6 3.44129 6.31607 2.87868 6.87868C2.31607 7.44129 2 8.20435 2 9V20H8V9C8 8.20435 7.68393 7.44129 7.12132 6.87868C6.55871 6.31607 5.79565 6 5 6ZM1.46447 5.46447C2.40215 4.52678 3.67392 4 5 4C6.32608 4 7.59785 4.52678 8.53553 5.46447C9.47322 6.40215 10 7.67392 10 9V21C10 21.5523 9.55229 22 9 22H1C0.447715 22 0 21.5523 0 21V9C0 7.67392 0.526784 6.40215 1.46447 5.46447Z" fill="#E6E6E6"/>
<path fill-rule="evenodd" clip-rule="evenodd" d="M12.5225 2.15536C13.7226 2.3167 14.7331 2.66187 15.5356 3.46439C16.3381 4.26692 16.6833 5.27738 16.8446 6.47751C17 7.63346 17 9.10326 17 10.9269V11.8377L19.9487 20.6838C20.0503 20.9887 19.9992 21.3239 19.8112 21.5847C19.6233 21.8455 19.3214 22 19 22H13C12.6786 22 12.3767 21.8455 12.1888 21.5847C12.0008 21.3239 11.9497 20.9887 12.0513 20.6838L15 11.8377V11C15 9.08598 14.9979 7.75112 14.8625 6.74399C14.7309 5.76563 14.4904 5.24759 14.1214 4.87861C13.7524 4.50963 13.2344 4.26905 12.256 4.13752C11.2489 4.00213 9.91402 4 8 4H7C6.44772 4 6 3.55229 6 3C6 2.44772 6.44772 2 7 2L8.07317 2C9.89675 1.99997 11.3665 1.99995 12.5225 2.15536ZM16 15.1623L14.3874 20H17.6126L16 15.1623ZM0 3C0 2.44772 0.447715 2 1 2H3C3.55228 2 4 2.44772 4 3C4 3.55229 3.55228 4 3 4H1C0.447715 4 0 3.55229 0 3Z" fill="#E6E6E6"/>
<path fill-rule="evenodd" clip-rule="evenodd" d="M5 2C4.44772 2 4 2.44772 4 3C4 3.55228 4.44772 4 5 4C5.55228 4 6 3.55228 6 3C6 2.44772 5.55228 2 5 2ZM2 3C2 1.34315 3.34315 0 5 0C6.65685 0 8 1.34315 8 3C8 4.65685 6.65685 6 5 6C3.34315 6 2 4.65685 2 3Z" fill="#E6E6E6"/>
</svg>
