<svg width="144" height="144" viewBox="0 0 144 144" fill="none" xmlns="http://www.w3.org/2000/svg">
<path fill-rule="evenodd" clip-rule="evenodd" d="M144 72C144 111.765 111.765 144 72 144C32.2355 144 0 111.765 0 72C0 32.2355 32.2355 0 72 0C111.765 0 144 32.2355 144 72ZM28.9581 77.4V74H39.5181V77.4H28.9581ZM44.815 87V83.2H51.255V62.72H45.975V59.8C48.735 59.28 50.695 58.6 52.375 57.56H55.855V83.2H61.615V87H44.815ZM75.5875 87.52C69.7875 87.52 66.0675 82.4 66.0675 72.16C66.0675 61.96 69.7875 57 75.5875 57C81.3475 57 85.1075 62 85.1075 72.16C85.1075 82.4 81.3475 87.52 75.5875 87.52ZM75.5875 83.88C78.5875 83.88 80.7075 80.68 80.7075 72.16C80.7075 63.72 78.5875 60.64 75.5875 60.64C72.5875 60.64 70.4675 63.72 70.4675 72.16C70.4675 80.68 72.5875 83.88 75.5875 83.88ZM92.08 72.096C92.08 74.232 93.712 75.672 95.608 75.672C97.552 75.672 99.16 74.232 99.16 72.096C99.16 69.96 97.552 68.52 95.608 68.52C93.712 68.52 92.08 69.96 92.08 72.096ZM97.576 72.096C97.576 73.344 96.784 74.232 95.608 74.232C94.456 74.232 93.664 73.344 93.664 72.096C93.664 70.824 94.456 69.936 95.608 69.936C96.784 69.936 97.576 70.824 97.576 72.096ZM101.579 78.216C101.579 84 104.987 87.312 109.427 87.312C111.707 87.312 113.507 86.4 114.923 84.768L113.435 83.016C112.379 84.168 111.131 84.888 109.523 84.888C106.403 84.888 104.435 82.32 104.435 78.12C104.435 73.968 106.547 71.424 109.595 71.424C111.035 71.424 112.139 72.072 113.051 73.008L114.563 71.232C113.483 70.056 111.755 69 109.547 69C105.083 69 101.579 72.456 101.579 78.216Z" fill="url(#paint0_radial_167_8525)"/>
<defs>
<radialGradient id="paint0_radial_167_8525" cx="0" cy="0" r="1" gradientUnits="userSpaceOnUse" gradientTransform="translate(72 72) rotate(90) scale(72)">
<stop offset="0.666667" stop-color="#82C5F9"/>
<stop offset="1" stop-color="#82C5F9" stop-opacity="0.2"/>
</radialGradient>
</defs>
</svg>
